<svg width="127" height="45" viewBox="0 0 127 45" fill="none" xmlns="http://www.w3.org/2000/svg">
<path d="M19.4563 13.478H14.6622C14.5983 12.9858 14.4673 12.5415 14.2691 12.1452C14.071 11.7489 13.8089 11.4102 13.4829 11.1289C13.1569 10.8477 12.7702 10.6335 12.3227 10.4865C11.8817 10.3331 11.3927 10.2564 10.8558 10.2564C9.90335 10.2564 9.08198 10.4897 8.39164 10.9563C7.70769 11.4229 7.18034 12.0973 6.8096 12.9794C6.44526 13.8615 6.26308 14.929 6.26308 16.1818C6.26308 17.4858 6.44845 18.5788 6.81919 19.4609C7.19632 20.3366 7.72367 20.9982 8.40122 21.4457C9.08517 21.8867 9.89377 22.1072 10.827 22.1072C11.3512 22.1072 11.8274 22.0401 12.2556 21.9059C12.6903 21.7717 13.0706 21.5767 13.3966 21.321C13.729 21.0589 14.0007 20.7425 14.2116 20.3718C14.4289 19.9947 14.5791 19.5696 14.6622 19.0966L19.4563 19.1254C19.3732 19.9947 19.1207 20.8512 18.6988 21.695C18.2833 22.5387 17.7112 23.3089 16.9825 24.0057C16.2539 24.696 15.3654 25.2457 14.3171 25.6548C13.2752 26.0639 12.0798 26.2685 10.7311 26.2685C8.95414 26.2685 7.36252 25.8786 5.95627 25.0987C4.55641 24.3125 3.45058 23.1683 2.63879 21.6662C1.827 20.1641 1.42111 18.3359 1.42111 16.1818C1.42111 14.0213 1.8334 12.19 2.65797 10.6879C3.48254 9.18572 4.59796 8.04474 6.00421 7.26491C7.41046 6.48508 8.9861 6.09517 10.7311 6.09517C11.92 6.09517 13.0195 6.26136 14.0294 6.59375C15.0394 6.91974 15.9279 7.39915 16.6949 8.03196C17.4619 8.65838 18.0852 9.42862 18.5646 10.3427C19.044 11.2567 19.3412 12.3018 19.4563 13.478ZM22.9821 26V6.36364H36.6738V10.218H27.7282V14.245H35.9739V18.109H27.7282V22.1456H36.6738V26H22.9821ZM40.4561 6.36364H46.3336L51.3194 18.5213H51.5495L56.5353 6.36364H62.4128V26H57.7914V13.9382H57.6284L52.911 25.8754H49.9579L45.2406 13.8711H45.0776V26H40.4561V6.36364ZM70.4307 26H65.3298L71.9552 6.36364H78.2737L84.8991 26H79.7982L75.1863 11.3111H75.0329L70.4307 26ZM69.7499 18.272H80.4118V21.8771H69.7499V18.272ZM87.8232 26V6.36364H95.9347C97.4049 6.36364 98.6737 6.62891 99.7412 7.15945C100.815 7.68359 101.643 8.43785 102.224 9.42223C102.806 10.4002 103.097 11.5604 103.097 12.9027C103.097 14.2642 102.8 15.4212 102.205 16.3736C101.611 17.3196 100.767 18.0419 99.6741 18.5405C98.581 19.0327 97.2866 19.2788 95.7909 19.2788H90.6613V15.5394H94.9088C95.6247 15.5394 96.2224 15.4467 96.7018 15.2614C97.1876 15.0696 97.5551 14.782 97.8044 14.3984C98.0537 14.0085 98.1783 13.5099 98.1783 12.9027C98.1783 12.2955 98.0537 11.7937 97.8044 11.3974C97.5551 10.9947 97.1876 10.6942 96.7018 10.4961C96.216 10.2915 95.6183 10.1893 94.9088 10.1893H92.5693V26H87.8232ZM98.8783 17.0256L103.768 26H98.5906L93.7966 17.0256H98.8783ZM110.758 26H105.657L112.282 6.36364H118.601L125.226 26H120.125L115.513 11.3111H115.36L110.758 26ZM110.077 18.272H120.739V21.8771H110.077V18.272Z" fill="white"/>
<path d="M1.35884 33.2102V32.2727H7.9043V33.2102H5.15998V41H4.10316V33.2102H1.35884ZM9.53533 41V32.2727H12.4842C13.166 32.2727 13.7257 32.3892 14.1632 32.6222C14.6007 32.8523 14.9245 33.169 15.1348 33.5724C15.345 33.9759 15.4501 34.4347 15.4501 34.9489C15.4501 35.4631 15.345 35.919 15.1348 36.3168C14.9245 36.7145 14.6021 37.027 14.1674 37.2543C13.7328 37.4787 13.1774 37.5909 12.5012 37.5909H10.1149V36.6364H12.4672C12.9331 36.6364 13.3081 36.5682 13.5922 36.4318C13.8791 36.2955 14.0865 36.1023 14.2143 35.8523C14.345 35.5994 14.4103 35.2983 14.4103 34.9489C14.4103 34.5994 14.345 34.294 14.2143 34.0327C14.0836 33.7713 13.8748 33.5696 13.5879 33.4276C13.301 33.2827 12.9217 33.2102 12.4501 33.2102H10.5922V41H9.53533ZM13.6433 37.0795L15.791 41H14.5637L12.4501 37.0795H13.6433ZM17.5691 41H16.4611L19.6657 32.2727H20.7566L23.9611 41H22.8532L20.2452 33.6534H20.177L17.5691 41ZM17.9782 37.5909H22.4441V38.5284H17.9782V37.5909ZM26.3773 32.2727V41H25.3205V32.2727H26.3773ZM35.4167 32.2727V41H34.394L29.6383 34.1477H29.5531V41H28.4963V32.2727H29.519L34.2917 39.142H34.377V32.2727H35.4167ZM38.5882 32.2727V41H37.5314V32.2727H38.5882ZM47.6277 32.2727V41H46.6049L41.8493 34.1477H41.764V41H40.7072V32.2727H41.7299L46.5027 39.142H46.5879V32.2727H47.6277ZM55.7083 35C55.6145 34.7131 55.4909 34.456 55.3375 34.2287C55.187 33.9986 55.0066 33.8026 54.7963 33.6406C54.589 33.4787 54.3532 33.3551 54.089 33.2699C53.8248 33.1847 53.535 33.142 53.2196 33.142C52.7026 33.142 52.2324 33.2756 51.8091 33.5426C51.3858 33.8097 51.0492 34.2031 50.7992 34.723C50.5492 35.2429 50.4242 35.8807 50.4242 36.6364C50.4242 37.392 50.5506 38.0298 50.8034 38.5497C51.0563 39.0696 51.3986 39.4631 51.8304 39.7301C52.2623 39.9972 52.748 40.1307 53.2878 40.1307C53.7878 40.1307 54.2282 40.0241 54.6088 39.8111C54.9924 39.5952 55.2907 39.2912 55.5037 38.8991C55.7196 38.5043 55.8276 38.0398 55.8276 37.5057L56.1515 37.5739H53.5265V36.6364H56.8503V37.5739C56.8503 38.2926 56.6969 38.9176 56.3901 39.4489C56.0861 39.9801 55.6657 40.392 55.1287 40.6847C54.5946 40.9744 53.981 41.1193 53.2878 41.1193C52.5151 41.1193 51.8361 40.9375 51.2509 40.5739C50.6685 40.2102 50.214 39.6932 49.8873 39.0227C49.5634 38.3523 49.4015 37.5568 49.4015 36.6364C49.4015 35.946 49.4938 35.3253 49.6784 34.7741C49.8659 34.2202 50.1301 33.7486 50.4711 33.3594C50.812 32.9702 51.2154 32.6719 51.6813 32.4645C52.1472 32.2571 52.66 32.1534 53.2196 32.1534C53.6799 32.1534 54.1088 32.223 54.5066 32.3622C54.9071 32.4986 55.2637 32.6932 55.5762 32.946C55.8915 33.196 56.1543 33.4957 56.3645 33.8452C56.5748 34.1918 56.7196 34.5767 56.7992 35H55.7083ZM62.0353 41V32.2727H64.9842C65.6689 32.2727 66.2285 32.3963 66.6632 32.6435C67.1007 32.8878 67.4245 33.2188 67.6348 33.6364C67.845 34.054 67.9501 34.5199 67.9501 35.0341C67.9501 35.5483 67.845 36.0156 67.6348 36.4361C67.4274 36.8565 67.1064 37.1918 66.6717 37.4418C66.237 37.6889 65.6802 37.8125 65.0012 37.8125H62.8876V36.875H64.9672C65.4359 36.875 65.8123 36.794 66.0964 36.6321C66.3805 36.4702 66.5865 36.2514 66.7143 35.9759C66.845 35.6974 66.9103 35.3835 66.9103 35.0341C66.9103 34.6847 66.845 34.3722 66.7143 34.0966C66.5865 33.821 66.3791 33.6051 66.0922 33.4489C65.8052 33.2898 65.4245 33.2102 64.9501 33.2102H63.0922V41H62.0353ZM69.6525 41V32.2727H70.7093V40.0625H74.7662V41H69.6525ZM77.3113 41H76.2033L79.4078 32.2727H80.4988L83.7033 41H82.5953L79.9874 33.6534H79.9192L77.3113 41ZM77.7203 37.5909H82.1863V38.5284H77.7203V37.5909ZM83.5659 33.2102V32.2727H90.1113V33.2102H87.367V41H86.3102V33.2102H83.5659ZM91.7424 41V32.2727H96.9753V33.2102H92.7992V36.1591H96.5833V37.0966H92.7992V41H91.7424ZM106.149 36.6364C106.149 37.5568 105.983 38.3523 105.65 39.0227C105.318 39.6932 104.862 40.2102 104.282 40.5739C103.703 40.9375 103.041 41.1193 102.297 41.1193C101.552 41.1193 100.89 40.9375 100.311 40.5739C99.7314 40.2102 99.2754 39.6932 98.943 39.0227C98.6106 38.3523 98.4444 37.5568 98.4444 36.6364C98.4444 35.7159 98.6106 34.9205 98.943 34.25C99.2754 33.5795 99.7314 33.0625 100.311 32.6989C100.89 32.3352 101.552 32.1534 102.297 32.1534C103.041 32.1534 103.703 32.3352 104.282 32.6989C104.862 33.0625 105.318 33.5795 105.65 34.25C105.983 34.9205 106.149 35.7159 106.149 36.6364ZM105.126 36.6364C105.126 35.8807 105 35.2429 104.747 34.723C104.497 34.2031 104.157 33.8097 103.729 33.5426C103.302 33.2756 102.825 33.142 102.297 33.142C101.768 33.142 101.29 33.2756 100.861 33.5426C100.434 33.8097 100.095 34.2031 99.8422 34.723C99.5922 35.2429 99.4672 35.8807 99.4672 36.6364C99.4672 37.392 99.5922 38.0298 99.8422 38.5497C100.095 39.0696 100.434 39.4631 100.861 39.7301C101.29 39.9972 101.768 40.1307 102.297 40.1307C102.825 40.1307 103.302 39.9972 103.729 39.7301C104.157 39.4631 104.497 39.0696 104.747 38.5497C105 38.0298 105.126 37.392 105.126 36.6364ZM107.926 41V32.2727H110.875C111.557 32.2727 112.116 32.3892 112.554 32.6222C112.991 32.8523 113.315 33.169 113.525 33.5724C113.736 33.9759 113.841 34.4347 113.841 34.9489C113.841 35.4631 113.736 35.919 113.525 36.3168C113.315 36.7145 112.993 37.027 112.558 37.2543C112.123 37.4787 111.568 37.5909 110.892 37.5909H108.506V36.6364H110.858C111.324 36.6364 111.699 36.5682 111.983 36.4318C112.27 36.2955 112.477 36.1023 112.605 35.8523C112.736 35.5994 112.801 35.2983 112.801 34.9489C112.801 34.5994 112.736 34.294 112.605 34.0327C112.474 33.7713 112.265 33.5696 111.979 33.4276C111.692 33.2827 111.312 33.2102 110.841 33.2102H108.983V41H107.926ZM112.034 37.0795L114.182 41H112.954L110.841 37.0795H112.034ZM115.602 32.2727H116.863L119.829 39.517H119.931L122.897 32.2727H124.159V41H123.17V34.3693H123.085L120.357 41H119.403L116.676 34.3693H116.59V41H115.602V32.2727Z" fill="#0E5A02"/>
<path d="M20.4563 13.478H15.6622C15.5983 12.9858 15.4673 12.5415 15.2691 12.1452C15.071 11.7489 14.8089 11.4102 14.4829 11.1289C14.1569 10.8477 13.7702 10.6335 13.3227 10.4865C12.8817 10.3331 12.3927 10.2564 11.8558 10.2564C10.9034 10.2564 10.082 10.4897 9.39164 10.9563C8.70769 11.4229 8.18034 12.0973 7.8096 12.9794C7.44526 13.8615 7.26308 14.929 7.26308 16.1818C7.26308 17.4858 7.44845 18.5788 7.81919 19.4609C8.19632 20.3366 8.72367 20.9982 9.40122 21.4457C10.0852 21.8867 10.8938 22.1072 11.827 22.1072C12.3512 22.1072 12.8274 22.0401 13.2556 21.9059C13.6903 21.7717 14.0706 21.5767 14.3966 21.321C14.729 21.0589 15.0007 20.7425 15.2116 20.3718C15.4289 19.9947 15.5791 19.5696 15.6622 19.0966L20.4563 19.1254C20.3732 19.9947 20.1207 20.8512 19.6988 21.695C19.2833 22.5387 18.7112 23.3089 17.9825 24.0057C17.2539 24.696 16.3654 25.2457 15.3171 25.6548C14.2752 26.0639 13.0798 26.2685 11.7311 26.2685C9.95414 26.2685 8.36252 25.8786 6.95627 25.0987C5.55641 24.3125 4.45058 23.1683 3.63879 21.6662C2.827 20.1641 2.42111 18.3359 2.42111 16.1818C2.42111 14.0213 2.8334 12.19 3.65797 10.6879C4.48254 9.18572 5.59796 8.04474 7.00421 7.26491C8.41046 6.48508 9.9861 6.09517 11.7311 6.09517C12.92 6.09517 14.0195 6.26136 15.0294 6.59375C16.0394 6.91974 16.9279 7.39915 17.6949 8.03196C18.4619 8.65838 19.0852 9.42862 19.5646 10.3427C20.044 11.2567 20.3412 12.3018 20.4563 13.478ZM23.9821 26V6.36364H37.6738V10.218H28.7282V14.245H36.9739V18.109H28.7282V22.1456H37.6738V26H23.9821ZM41.4561 6.36364H47.3336L52.3194 18.5213H52.5495L57.5353 6.36364H63.4128V26H58.7914V13.9382H58.6284L53.911 25.8754H50.9579L46.2406 13.8711H46.0776V26H41.4561V6.36364ZM71.4307 26H66.3298L72.9552 6.36364H79.2737L85.8991 26H80.7982L76.1863 11.3111H76.0329L71.4307 26ZM70.7499 18.272H81.4118V21.8771H70.7499V18.272ZM88.8232 26V6.36364H96.9347C98.4049 6.36364 99.6737 6.62891 100.741 7.15945C101.815 7.68359 102.643 8.43785 103.224 9.42223C103.806 10.4002 104.097 11.5604 104.097 12.9027C104.097 14.2642 103.8 15.4212 103.205 16.3736C102.611 17.3196 101.767 18.0419 100.674 18.5405C99.581 19.0327 98.2866 19.2788 96.7909 19.2788H91.6613V15.5394H95.9088C96.6247 15.5394 97.2224 15.4467 97.7018 15.2614C98.1876 15.0696 98.5551 14.782 98.8044 14.3984C99.0537 14.0085 99.1783 13.5099 99.1783 12.9027C99.1783 12.2955 99.0537 11.7937 98.8044 11.3974C98.5551 10.9947 98.1876 10.6942 97.7018 10.4961C97.216 10.2915 96.6183 10.1893 95.9088 10.1893H93.5693V26H88.8232ZM99.8783 17.0256L104.768 26H99.5906L94.7966 17.0256H99.8783ZM111.758 26H106.657L113.282 6.36364H119.601L126.226 26H121.125L116.513 11.3111H116.36L111.758 26ZM111.077 18.272H121.739V21.8771H111.077V18.272Z" fill="#0E5A02"/>
<path d="M2.35884 33.2102V32.2727H8.9043V33.2102H6.15998V41H5.10316V33.2102H2.35884ZM10.5353 41V32.2727H13.4842C14.166 32.2727 14.7257 32.3892 15.1632 32.6222C15.6007 32.8523 15.9245 33.169 16.1348 33.5724C16.345 33.9759 16.4501 34.4347 16.4501 34.9489C16.4501 35.4631 16.345 35.919 16.1348 36.3168C15.9245 36.7145 15.6021 37.027 15.1674 37.2543C14.7328 37.4787 14.1774 37.5909 13.5012 37.5909H11.1149V36.6364H13.4672C13.9331 36.6364 14.3081 36.5682 14.5922 36.4318C14.8791 36.2955 15.0865 36.1023 15.2143 35.8523C15.345 35.5994 15.4103 35.2983 15.4103 34.9489C15.4103 34.5994 15.345 34.294 15.2143 34.0327C15.0836 33.7713 14.8748 33.5696 14.5879 33.4276C14.301 33.2827 13.9217 33.2102 13.4501 33.2102H11.5922V41H10.5353ZM14.6433 37.0795L16.791 41H15.5637L13.4501 37.0795H14.6433ZM18.5691 41H17.4611L20.6657 32.2727H21.7566L24.9611 41H23.8532L21.2452 33.6534H21.177L18.5691 41ZM18.9782 37.5909H23.4441V38.5284H18.9782V37.5909ZM27.3773 32.2727V41H26.3205V32.2727H27.3773ZM36.4167 32.2727V41H35.394L30.6383 34.1477H30.5531V41H29.4963V32.2727H30.519L35.2917 39.142H35.377V32.2727H36.4167ZM39.5882 32.2727V41H38.5314V32.2727H39.5882ZM48.6277 32.2727V41H47.6049L42.8493 34.1477H42.764V41H41.7072V32.2727H42.7299L47.5027 39.142H47.5879V32.2727H48.6277ZM56.7083 35C56.6145 34.7131 56.4909 34.456 56.3375 34.2287C56.187 33.9986 56.0066 33.8026 55.7963 33.6406C55.589 33.4787 55.3532 33.3551 55.089 33.2699C54.8248 33.1847 54.535 33.142 54.2196 33.142C53.7026 33.142 53.2324 33.2756 52.8091 33.5426C52.3858 33.8097 52.0492 34.2031 51.7992 34.723C51.5492 35.2429 51.4242 35.8807 51.4242 36.6364C51.4242 37.392 51.5506 38.0298 51.8034 38.5497C52.0563 39.0696 52.3986 39.4631 52.8304 39.7301C53.2623 39.9972 53.748 40.1307 54.2878 40.1307C54.7878 40.1307 55.2282 40.0241 55.6088 39.8111C55.9924 39.5952 56.2907 39.2912 56.5037 38.8991C56.7196 38.5043 56.8276 38.0398 56.8276 37.5057L57.1515 37.5739H54.5265V36.6364H57.8503V37.5739C57.8503 38.2926 57.6969 38.9176 57.3901 39.4489C57.0861 39.9801 56.6657 40.392 56.1287 40.6847C55.5946 40.9744 54.981 41.1193 54.2878 41.1193C53.5151 41.1193 52.8361 40.9375 52.2509 40.5739C51.6685 40.2102 51.214 39.6932 50.8873 39.0227C50.5634 38.3523 50.4015 37.5568 50.4015 36.6364C50.4015 35.946 50.4938 35.3253 50.6784 34.7741C50.8659 34.2202 51.1301 33.7486 51.4711 33.3594C51.812 32.9702 52.2154 32.6719 52.6813 32.4645C53.1472 32.2571 53.66 32.1534 54.2196 32.1534C54.6799 32.1534 55.1088 32.223 55.5066 32.3622C55.9071 32.4986 56.2637 32.6932 56.5762 32.946C56.8915 33.196 57.1543 33.4957 57.3645 33.8452C57.5748 34.1918 57.7196 34.5767 57.7992 35H56.7083ZM63.0353 41V32.2727H65.9842C66.6689 32.2727 67.2285 32.3963 67.6632 32.6435C68.1007 32.8878 68.4245 33.2188 68.6348 33.6364C68.845 34.054 68.9501 34.5199 68.9501 35.0341C68.9501 35.5483 68.845 36.0156 68.6348 36.4361C68.4274 36.8565 68.1064 37.1918 67.6717 37.4418C67.237 37.6889 66.6802 37.8125 66.0012 37.8125H63.8876V36.875H65.9672C66.4359 36.875 66.8123 36.794 67.0964 36.6321C67.3805 36.4702 67.5865 36.2514 67.7143 35.9759C67.845 35.6974 67.9103 35.3835 67.9103 35.0341C67.9103 34.6847 67.845 34.3722 67.7143 34.0966C67.5865 33.821 67.3791 33.6051 67.0922 33.4489C66.8052 33.2898 66.4245 33.2102 65.9501 33.2102H64.0922V41H63.0353ZM70.6525 41V32.2727H71.7093V40.0625H75.7662V41H70.6525ZM78.3113 41H77.2033L80.4078 32.2727H81.4988L84.7033 41H83.5953L80.9874 33.6534H80.9192L78.3113 41ZM78.7203 37.5909H83.1863V38.5284H78.7203V37.5909ZM84.5659 33.2102V32.2727H91.1113V33.2102H88.367V41H87.3102V33.2102H84.5659ZM92.7424 41V32.2727H97.9753V33.2102H93.7992V36.1591H97.5833V37.0966H93.7992V41H92.7424ZM107.149 36.6364C107.149 37.5568 106.983 38.3523 106.65 39.0227C106.318 39.6932 105.862 40.2102 105.282 40.5739C104.703 40.9375 104.041 41.1193 103.297 41.1193C102.552 41.1193 101.89 40.9375 101.311 40.5739C100.731 40.2102 100.275 39.6932 99.943 39.0227C99.6106 38.3523 99.4444 37.5568 99.4444 36.6364C99.4444 35.7159 99.6106 34.9205 99.943 34.25C100.275 33.5795 100.731 33.0625 101.311 32.6989C101.89 32.3352 102.552 32.1534 103.297 32.1534C104.041 32.1534 104.703 32.3352 105.282 32.6989C105.862 33.0625 106.318 33.5795 106.65 34.25C106.983 34.9205 107.149 35.7159 107.149 36.6364ZM106.126 36.6364C106.126 35.8807 106 35.2429 105.747 34.723C105.497 34.2031 105.157 33.8097 104.729 33.5426C104.302 33.2756 103.825 33.142 103.297 33.142C102.768 33.142 102.29 33.2756 101.861 33.5426C101.434 33.8097 101.095 34.2031 100.842 34.723C100.592 35.2429 100.467 35.8807 100.467 36.6364C100.467 37.392 100.592 38.0298 100.842 38.5497C101.095 39.0696 101.434 39.4631 101.861 39.7301C102.29 39.9972 102.768 40.1307 103.297 40.1307C103.825 40.1307 104.302 39.9972 104.729 39.7301C105.157 39.4631 105.497 39.0696 105.747 38.5497C106 38.0298 106.126 37.392 106.126 36.6364ZM108.926 41V32.2727H111.875C112.557 32.2727 113.116 32.3892 113.554 32.6222C113.991 32.8523 114.315 33.169 114.525 33.5724C114.736 33.9759 114.841 34.4347 114.841 34.9489C114.841 35.4631 114.736 35.919 114.525 36.3168C114.315 36.7145 113.993 37.027 113.558 37.2543C113.123 37.4787 112.568 37.5909 111.892 37.5909H109.506V36.6364H111.858C112.324 36.6364 112.699 36.5682 112.983 36.4318C113.27 36.2955 113.477 36.1023 113.605 35.8523C113.736 35.5994 113.801 35.2983 113.801 34.9489C113.801 34.5994 113.736 34.294 113.605 34.0327C113.474 33.7713 113.265 33.5696 112.979 33.4276C112.692 33.2827 112.312 33.2102 111.841 33.2102H109.983V41H108.926ZM113.034 37.0795L115.182 41H113.954L111.841 37.0795H113.034ZM116.602 32.2727H117.863L120.829 39.517H120.931L123.897 32.2727H125.159V41H124.17V34.3693H124.085L121.357 41H120.403L117.676 34.3693H117.59V41H116.602V32.2727Z" fill="white"/>
</svg>
