<?xml version="1.0" encoding="UTF-8"?>
<svg version="1.1" xmlns="http://www.w3.org/2000/svg" width="635" height="225">
<path d="M0 0 C209.55 0 419.1 0 635 0 C635 74.25 635 148.5 635 225 C425.45 225 215.9 225 0 225 C0 150.75 0 76.5 0 0 Z " fill="#026637" transform="translate(0,0)"/>
<path d="M0 0 C3 1 3 1 4.90112305 4.37060547 C5.61566055 5.86425088 6.31841263 7.3635695 7.01171875 8.8671875 C7.57135063 10.05297897 7.57135063 10.05297897 8.14228821 11.26272583 C8.92961507 12.93667887 9.71188932 14.61301621 10.48950195 16.29150391 C11.6819454 18.86302145 12.89132952 21.42602071 14.10351562 23.98828125 C14.86560174 25.61410636 15.62670272 27.24039367 16.38671875 28.8671875 C16.93038338 30.02044022 16.93038338 30.02044022 17.48503113 31.19699097 C20 36.65249228 20 36.65249228 20 40 C16.535 40.495 16.535 40.495 13 41 C13.36351562 41.59014893 13.72703125 42.18029785 14.1015625 42.78833008 C15.74126655 45.45889294 17.37072106 48.13556535 19 50.8125 C19.57234375 51.74126953 20.1446875 52.67003906 20.734375 53.62695312 C21.27578125 54.51962891 21.8171875 55.41230469 22.375 56.33203125 C22.87773438 57.15421143 23.38046875 57.9763916 23.8984375 58.82348633 C25 61 25 61 25 64 C21.535 64.99 21.535 64.99 18 66 C18.38857178 66.49927002 18.77714355 66.99854004 19.17749023 67.51293945 C20.93509877 69.77617942 22.68635158 72.04425854 24.4375 74.3125 C25.04916016 75.09818359 25.66082031 75.88386719 26.29101562 76.69335938 C26.87431641 77.45068359 27.45761719 78.20800781 28.05859375 78.98828125 C28.59798584 79.68477783 29.13737793 80.38127441 29.69311523 81.09887695 C31 83 31 83 32 86 C26.06 86.99 26.06 86.99 20 88 C22.55844977 90.75386602 25.12153827 93.50314802 27.6875 96.25 C28.40873047 97.02730469 29.12996094 97.80460937 29.87304688 98.60546875 C33.41597599 102.39106424 36.94028817 105.76504225 41 109 C41 109.66 41 110.32 41 111 C29.78 111 18.56 111 7 111 C7 118.92 7 126.84 7 135 C11.99683076 133.40411112 11.99683076 133.40411112 16.99072266 131.79907227 C23.01352405 129.89620952 28.721904 128.84817697 35.0625 128.75 C36.56490234 128.71132813 36.56490234 128.71132813 38.09765625 128.671875 C42.39821803 129.15807579 44.9849567 130.9849567 48 134 C49.44960698 144.97559567 43.47752442 155.51911752 37 164 C36.56171875 164.61359375 36.1234375 165.2271875 35.671875 165.859375 C29.38177835 174.02927065 19.03422873 179.92479454 9 182 C-6.00083806 183.75427462 -17.43053523 180.52972918 -29.46875 171.20703125 C-38.59274399 163.25169698 -45.16976108 152.08894158 -47.57421875 140.1484375 C-47.74674975 136.59072929 -47.19755807 134.31793066 -45.3203125 131.296875 C-43 129 -43 129 -40.29296875 128.37109375 C-32.73736014 128.53266022 -26.04128232 129.755121 -18.80078125 131.9296875 C-14.26448562 133.20712327 -9.62121157 134.07575769 -5 135 C-5 127.08 -5 119.16 -5 111 C-15.89 111 -26.78 111 -38 111 C-36.1172549 107.2345098 -34.58807351 105.35356586 -31.6484375 102.453125 C-30.79765625 101.60878906 -29.946875 100.76445313 -29.0703125 99.89453125 C-28.18085937 99.02183594 -27.29140625 98.14914063 -26.375 97.25 C-25.4778125 96.36183594 -24.580625 95.47367187 -23.65625 94.55859375 C-21.44196931 92.36786923 -19.22156596 90.18333634 -17 88 C-20.96 87.34 -24.92 86.68 -29 86 C-27.50359594 83.00719188 -26.09467253 80.57975291 -24.1796875 77.890625 C-23.37724609 76.75947266 -23.37724609 76.75947266 -22.55859375 75.60546875 C-22.00300781 74.82816406 -21.44742188 74.05085938 -20.875 73.25 C-20.31167969 72.45722656 -19.74835938 71.66445312 -19.16796875 70.84765625 C-17.78111545 68.89665924 -16.39172386 66.94752412 -15 65 C-17.64 64.67 -20.28 64.34 -23 64 C-21.73294681 60.63584449 -20.28886807 57.62968211 -18.3984375 54.57421875 C-17.90859375 53.77822266 -17.41875 52.98222656 -16.9140625 52.16210938 C-16.40617187 51.34548828 -15.89828125 50.52886719 -15.375 49.6875 C-14.859375 48.85154297 -14.34375 48.01558594 -13.8125 47.15429688 C-12.54512996 45.10068801 -11.27421427 43.04936659 -10 41 C-12.64 40.67 -15.28 40.34 -18 40 C-16.57218751 35.36838056 -14.69834512 31.07500429 -12.55859375 26.73828125 C-12.06698509 25.72957222 -12.06698509 25.72957222 -11.56544495 24.70048523 C-10.52629725 22.56942528 -9.48224953 20.44081851 -8.4375 18.3125 C-7.38984084 16.17315835 -6.34327451 14.03329928 -5.29884338 11.89237976 C-4.65092114 10.56473669 -4.00104456 9.23804517 -3.34898376 7.91242981 C-2.06989336 5.29551559 -0.92257396 2.76772187 0 0 Z " fill="#F9FCFA" transform="translate(105,22)"/>
<path d="M0 0 C1.093125 0.66 2.18625 1.32 3.3125 2 C3.6425 1.01 3.9725 0.02 4.3125 -1 C8.9325 -1 13.5525 -1 18.3125 -1 C18.4367508 5.79518073 18.52714785 12.58968992 18.5871582 19.38574219 C18.61219317 21.69412771 18.64623154 24.00243483 18.68969727 26.31054688 C18.75083373 29.64212465 18.77882107 32.97264813 18.80078125 36.3046875 C18.82658768 37.32488983 18.8523941 38.34509216 18.87898254 39.39620972 C18.88173977 46.55302118 17.41110544 52.0583383 13.3125 58 C6.19751918 64.85753952 -1.03639301 66.39983016 -10.70849609 66.36791992 C-19.47919512 66.15476426 -24.37644618 62.67994844 -30.6875 57 C-29.52380874 53.50892621 -28.79776462 53.14777237 -25.75 51.3125 C-25.03972656 50.87550781 -24.32945312 50.43851563 -23.59765625 49.98828125 C-21.6875 49 -21.6875 49 -19.6875 49 C-18.33317325 50.31200404 -17.00016518 51.64631404 -15.6875 53 C-11.13724055 55.27512972 -5.02418045 54.26256223 -0.1875 53.3125 C2.44333599 52.19825629 2.44333599 52.19825629 3.6875 49.8125 C4.42916499 46.47500756 4.44615916 43.40830847 4.3125 40 C3.87421875 40.3609375 3.4359375 40.721875 2.984375 41.09375 C-3.05599232 45.51353097 -8.35371588 45.91924842 -15.6875 45 C-22.35393269 43.41217694 -27.08280817 38.66451573 -30.6875 33 C-33.60745837 26.85271922 -33.81928975 19.23346672 -32.0703125 12.69140625 C-29.36747836 6.55621194 -24.26850081 1.73274233 -18.265625 -1.171875 C-12.13015964 -3.14266084 -5.76749473 -2.89400981 0 0 Z " fill="#F4F8F6" transform="translate(498.6875,63)"/>
<path d="M0 0 C2.96449554 1.33147139 5.46943161 2.96974456 8 5 C8.33 3.68 8.66 2.36 9 1 C13.62 1 18.24 1 23 1 C23 16.84 23 32.68 23 49 C18.38 49 13.76 49 9 49 C8.505 47.02 8.505 47.02 8 45 C7.32517578 45.54140625 7.32517578 45.54140625 6.63671875 46.09375 C0.86650782 50.25662762 -3.98345471 51.08577197 -11 50 C-18.62889077 47.76779444 -22.85758695 42.49927464 -26.875 35.9375 C-29.61839445 28.59974618 -29.1708894 19.58093884 -26 12.5 C-23.25824576 7.75075048 -19.68765043 4.75853783 -15 2 C-14.36707031 1.62746094 -13.73414063 1.25492188 -13.08203125 0.87109375 C-8.89010725 -0.88275062 -4.43568892 -0.62844011 0 0 Z " fill="#F1F7F4" transform="translate(554,61)"/>
<path d="M0 0 C2.13846569 1.44346434 3.9122532 2.65871242 5.5 4.6875 C5.5 5.3475 5.5 6.0075 5.5 6.6875 C6.16 6.6875 6.82 6.6875 7.5 6.6875 C7.70625 6.11 7.9125 5.5325 8.125 4.9375 C10.05421478 1.78060308 12.07438462 -0.02130651 15.5 -1.3125 C21.92396231 -2.2147419 28.11328405 -2.03532552 33.8125 1.27734375 C37.72373504 4.54576007 39.9123419 8.92452569 41.5 13.6875 C41.5846817 16.20118055 41.61601885 18.68619374 41.59765625 21.19921875 C41.5962413 21.92744339 41.59482635 22.65566803 41.59336853 23.40596008 C41.58777659 25.72901539 41.57522562 28.05197388 41.5625 30.375 C41.55748396 31.95117048 41.55292123 33.52734248 41.54882812 35.10351562 C41.5378098 38.96488098 41.52055074 42.82617408 41.5 46.6875 C36.88 46.6875 32.26 46.6875 27.5 46.6875 C27.47421875 44.42390625 27.4484375 42.1603125 27.421875 39.828125 C27.38343709 37.63040857 27.33828293 35.43292539 27.29248047 33.23535156 C27.26429465 31.71072569 27.24306811 30.18595434 27.22900391 28.66113281 C27.20753951 26.46604064 27.16087831 24.27269289 27.109375 22.078125 C27.08842773 20.75844727 27.06748047 19.43876953 27.04589844 18.07910156 C26.42011524 14.19118558 25.65495688 12.97339294 22.5 10.6875 C19.04295504 9.85404185 19.04295504 9.85404185 15.5 10.6875 C11.81282077 13.55530607 10.70146004 15.33531057 10.00756836 19.99267578 C9.78252193 24.02302944 9.70294428 28.02732969 9.6875 32.0625 C9.66433631 33.48050688 9.63896707 34.89847954 9.61132812 36.31640625 C9.54459845 39.7742168 9.52340343 43.22804691 9.5 46.6875 C5.21 46.6875 0.92 46.6875 -3.5 46.6875 C-3.50410889 45.77460205 -3.50821777 44.8617041 -3.51245117 43.92114258 C-3.53949402 40.51915222 -3.58863862 37.11894939 -3.65258789 33.7175293 C-3.67571993 32.24824053 -3.6901524 30.77878708 -3.69555664 29.30932617 C-3.70488279 27.19085655 -3.74594127 25.07495935 -3.79296875 22.95703125 C-3.8086792 21.68448486 -3.82438965 20.41193848 -3.84057617 19.10083008 C-4.66424652 14.83732204 -6.13068936 13.34479598 -9.5 10.6875 C-12.5 9.85416667 -12.5 9.85416667 -15.5 10.6875 C-18.07285724 12.860135 -19.98996919 14.66743838 -21.5 17.6875 C-21.65469367 19.86424783 -21.75002106 22.0453348 -21.81640625 24.2265625 C-21.85830078 25.52851563 -21.90019531 26.83046875 -21.94335938 28.171875 C-21.98317299 29.55208045 -22.02288522 30.93228883 -22.0625 32.3125 C-22.10569407 33.70053415 -22.14930865 35.08855528 -22.19335938 36.4765625 C-22.29971934 39.88008129 -22.40038918 43.283777 -22.5 46.6875 C-26.79 46.6875 -31.08 46.6875 -35.5 46.6875 C-35.5 31.1775 -35.5 15.6675 -35.5 -0.3125 C-31.21 -0.3125 -26.92 -0.3125 -22.5 -0.3125 C-22.5 1.3375 -22.5 2.9875 -22.5 4.6875 C-21.84 4.6875 -21.18 4.6875 -20.5 4.6875 C-20.12875 3.759375 -20.12875 3.759375 -19.75 2.8125 C-15.93997136 -3.66454869 -6.03435201 -2.262882 0 0 Z " fill="#F7FAF8" transform="translate(333.5,133.3125)"/>
<path d="M0 0 C1.60756753 1.11955596 3.11569628 2.17819628 4.5 3.5625 C4.83 1.9125 5.16 0.2625 5.5 -1.4375 C9.79 -1.4375 14.08 -1.4375 18.5 -1.4375 C18.5 14.4025 18.5 30.2425 18.5 46.5625 C14.21 46.5625 9.92 46.5625 5.5 46.5625 C5.17 44.9125 4.84 43.2625 4.5 41.5625 C3.778125 42.18125 3.05625 42.8 2.3125 43.4375 C-2.73336235 47.24992933 -7.19665448 48.31843627 -13.5 47.5625 C-18.53377209 46.29012587 -22.89326671 44.36419185 -26.5 40.5625 C-31.22000534 32.43285908 -34.22987441 24.79998926 -31.96875 15.33984375 C-29.15910944 7.41482499 -25.08166712 2.27929384 -17.5 -1.4375 C-11.28982755 -3.35678558 -5.60473612 -3.49791985 0 0 Z " fill="#F5FAF7" transform="translate(399.5,63.4375)"/>
<path d="M0 0 C2.98705158 1.3543188 4.59543155 2.70993481 7 5 C7.33 3.68 7.66 2.36 8 1 C12.29 1 16.58 1 21 1 C21 16.51 21 32.02 21 48 C16.71 48 12.42 48 8 48 C8 46.35 8 44.7 8 43 C7.34 43 6.68 43 6 43 C5.67 43.99 5.34 44.98 5 46 C-0.95036679 49.57022007 -7.18482783 50.09750825 -14 49 C-20.94763508 45.90758083 -25.42487178 41.20651103 -28.75 34.4375 C-31.22119606 27.14747162 -31.14004891 19.64312699 -27.9375 12.625 C-21.55191753 1.34138553 -12.51119809 -1.46271669 0 0 Z " fill="#F8FBF9" transform="translate(413,132)"/>
<path d="M0 0 C1.90625 1.1015625 1.90625 1.1015625 4.59375 3.1015625 C4.59375 3.7615625 4.59375 4.4215625 4.59375 5.1015625 C5.25375 5.1015625 5.91375 5.1015625 6.59375 5.1015625 C6.59375 3.4515625 6.59375 1.8015625 6.59375 0.1015625 C10.88375 0.1015625 15.17375 0.1015625 19.59375 0.1015625 C19.59375 15.6115625 19.59375 31.1215625 19.59375 47.1015625 C15.30375 47.1015625 11.01375 47.1015625 6.59375 47.1015625 C6.26375 45.4515625 5.93375 43.8015625 5.59375 42.1015625 C5.036875 42.7203125 4.48 43.3390625 3.90625 43.9765625 C-0.88906295 48.38306629 -6.04813313 48.65890783 -12.33203125 48.54296875 C-18.77701989 47.61757648 -23.38627209 43.73093137 -27.34375 38.7265625 C-32.17858338 31.03097995 -32.08540251 22.82443271 -30.40625 14.1015625 C-27.87142296 7.7746342 -23.34338992 3.5429331 -17.6171875 -0.0078125 C-12.39008701 -2.11342895 -5.24850663 -1.95966968 0 0 Z " fill="#F8FBF9" transform="translate(513.40625,132.8984375)"/>
<path d="M0 0 C4.29 0 8.58 0 13 0 C13 9.24 13 18.48 13 28 C13.66 28 14.32 28 15 28 C15.22429687 27.47664063 15.44859375 26.95328125 15.6796875 26.4140625 C17.85367401 22.43914042 20.7872135 19.01928164 23.63818359 15.51513672 C25.92579709 12.69038657 28.01532732 9.97474762 29.90625 6.859375 C31.77079095 3.89305985 33.10213955 1.99171833 36 0 C41.6114431 -1.15682901 47.34807415 -0.57803787 53 0 C49.19293849 5.16260614 45.25816149 10.20249707 41.2265625 15.19140625 C39.56632237 17.28563898 37.94087368 19.39145557 36.3359375 21.52734375 C35.88573242 22.12393799 35.43552734 22.72053223 34.97167969 23.33520508 C34.08422426 24.51467132 33.20191986 25.6980336 32.32519531 26.88549805 C31.26333184 28.29333579 30.13677629 29.651927 29 31 C28.34 31 27.68 31 27 31 C32.09888673 37.34045962 37.30190239 43.49300367 42.7890625 49.5 C45.80135837 52.90612961 48.59262977 56.46843572 51.37109375 60.06640625 C52.86321702 62.09657508 52.86321702 62.09657508 55 63 C55 63.66 55 64.32 55 65 C41.32045105 67.2116636 41.32045105 67.2116636 36.08007812 63.72119141 C32.36265687 60.24310245 29.40950921 56.17414474 26.47558594 52.03173828 C24.22313161 48.93032781 21.70038925 46.07820284 19.1875 43.1875 C15 38.25437202 15 38.25437202 15 36 C14.34 36 13.68 36 13 36 C13 45.24 13 54.48 13 64 C8.71 64 4.42 64 0 64 C0 42.88 0 21.76 0 0 Z " fill="#F9FBF9" transform="translate(175,45)"/>
<path d="M0 0 C9.15349837 -0.51217566 17.39115564 2.56402713 24.53515625 8.28515625 C27.07678255 10.67218241 28.50266206 12.85684488 29.41015625 16.28515625 C28.00264404 17.15432512 26.58370415 18.00500774 25.16015625 18.84765625 C24.37125 19.32332031 23.58234375 19.79898438 22.76953125 20.2890625 C20.41015625 21.28515625 20.41015625 21.28515625 18.26953125 21.05859375 C15.5918265 19.94475858 13.63791666 18.12305859 11.41015625 16.28515625 C6.65938327 13.42251099 1.79599133 13.56257533 -3.58984375 14.28515625 C-9.31978901 16.4992147 -12.67167032 19.87739642 -15.58984375 25.28515625 C-16.13845981 28.14049345 -16.15100412 30.88513557 -16.08984375 33.78515625 C-16.1053125 34.51863281 -16.12078125 35.25210938 -16.13671875 36.0078125 C-16.09953637 41.20405032 -14.96240677 44.15284002 -11.58984375 48.28515625 C-5.88331985 53.31233207 -2.30990021 53.62394801 5.19921875 53.57421875 C10.76487303 53.07317445 13.72631853 50.37830927 17.41015625 46.28515625 C21.7178044 47.85157376 25.47187089 49.96851781 29.41015625 52.28515625 C26.62440815 58.63666193 21.02843248 62.82316022 14.84765625 65.72265625 C7.14105515 68.48607426 -2.37932462 68.73557172 -10.15234375 66.03515625 C-19.20605791 61.42599268 -26.43875748 55.18070724 -29.92578125 45.38671875 C-31.99783462 35.70901065 -32.30758399 24.88797046 -27 16.25390625 C-26.53464844 15.60421875 -26.06929687 14.95453125 -25.58984375 14.28515625 C-24.84734375 13.21265625 -24.10484375 12.14015625 -23.33984375 11.03515625 C-16.33040636 4.02571886 -9.71253766 1.0694046 0 0 Z " fill="#F6FAF8" transform="translate(205.58984375,113.71484375)"/>
<path d="M0 0 C5.63982144 3.44792577 9.58743326 8.67486652 12.5 14.5 C12.5 18.79 12.5 23.08 12.5 27.5 C0.62 27.5 -11.26 27.5 -23.5 27.5 C-20.28209283 33.08481665 -20.28209283 33.08481665 -15.5 35.5 C-9.74189962 36.30613405 -5.53300514 35.49583639 -0.5 32.5 C2.5 31.5 2.5 31.5 4.54296875 32.49609375 C5.60451172 33.20958984 5.60451172 33.20958984 6.6875 33.9375 C7.40292969 34.41058594 8.11835938 34.88367188 8.85546875 35.37109375 C9.39816406 35.74363281 9.94085938 36.11617187 10.5 36.5 C9.16767139 40.84487165 7.68134658 42.56186224 3.75 44.8125 C-3.81256898 48.64829842 -11.17931356 48.67432044 -19.3671875 46.8671875 C-27.14993927 44.24139587 -31.33277695 39.13534189 -35.4375 32.25 C-37.50338687 24.95863457 -37.62392184 18.09726957 -34.4375 11.125 C-27.57851222 -0.9608085 -12.9725078 -5.75989541 0 0 Z " fill="#F5F9F7" transform="translate(276.5,133.5)"/>
<path d="M0 0 C6.08281071 3.33903524 9.03240974 8.09664934 11.5546875 14.40234375 C11.5546875 18.36234375 11.5546875 22.32234375 11.5546875 26.40234375 C-0.3253125 26.40234375 -12.2053125 26.40234375 -24.4453125 26.40234375 C-20.8178153 32.34695215 -20.8178153 32.34695215 -15.4453125 35.40234375 C-10.62957382 35.94605618 -7.8697195 35.91986383 -3.7578125 33.33984375 C-0.4453125 31.40234375 -0.4453125 31.40234375 2.1796875 31.40234375 C5.0935664 32.62924013 7.19701041 34.31411547 9.5546875 36.40234375 C8.61244708 39.67509597 7.8960539 41.14974357 5.12109375 43.203125 C-3.67659418 47.63057003 -10.65138468 48.99243357 -20.1953125 46.21484375 C-27.02087828 43.56993701 -32.19811614 39.99260719 -35.5546875 33.32421875 C-37.75354051 26.11043782 -37.97343343 17.64776243 -35.40625 10.515625 C-27.45903198 -2.55954655 -13.57747981 -5.40406774 0 0 Z " fill="#F7FAF9" transform="translate(266.4453125,63.59765625)"/>
<path d="M0 0 C4.62 0 9.24 0 14 0 C14.03738281 2.26359375 14.07476562 4.5271875 14.11328125 6.859375 C14.15952262 9.05706319 14.21074652 11.2545828 14.26245117 13.45214844 C14.2956588 14.9767834 14.32370378 16.50154006 14.34643555 18.02636719 C14.38005958 20.22122954 14.43237542 22.41498088 14.48828125 24.609375 C14.51446533 25.92905273 14.54064941 27.24873047 14.56762695 28.60839844 C15.01334861 32.10470858 15.51673173 33.55542019 18 36 C21.06141344 36.83128268 23.90668184 36.645798 27 36 C29.75569447 33.81840855 31.43588747 32.12822506 33 29 C33.15469367 26.82325217 33.25002106 24.6421652 33.31640625 22.4609375 C33.37924805 20.50800781 33.37924805 20.50800781 33.44335938 18.515625 C33.48317299 17.13541955 33.52288522 15.75521117 33.5625 14.375 C33.60569407 12.98696585 33.64930865 11.59894472 33.69335938 10.2109375 C33.79971934 6.80741871 33.90038918 3.403723 34 0 C38.29 0 42.58 0 47 0 C47 15.51 47 31.02 47 47 C43.04 47 39.08 47 35 47 C35 45.35 35 43.7 35 42 C34.0925 42.78375 33.185 43.5675 32.25 44.375 C27.29156198 48.65728738 23.32505207 49.5043234 16.82421875 49.3828125 C11.13413505 48.61154251 7.48350169 45.56158073 3.625 41.5 C0.30412875 36.39096731 -0.28178576 32.08815988 -0.1953125 26.07421875 C-0.1924826 25.32662796 -0.18965271 24.57903717 -0.18673706 23.80879211 C-0.17559469 21.4348612 -0.15050162 19.06131575 -0.125 16.6875 C-0.11496249 15.0722711 -0.10583799 13.45703624 -0.09765625 11.84179688 C-0.07567489 7.89438406 -0.04118657 3.94725726 0 0 Z " fill="#F4F8F6" transform="translate(311,62)"/>
<path d="M0 0 C4.62 0 9.24 0 14 0 C14 22.11 14 44.22 14 67 C9.38 67 4.76 67 0 67 C0 44.89 0 22.78 0 0 Z " fill="#EAF2ED" transform="translate(287,43)"/>
<path d="M0 0 C0 3.96 0 7.92 0 12 C-1.52625 12.061875 -3.0525 12.12375 -4.625 12.1875 C-10.01647011 12.72282327 -12.37390783 14.00200094 -16 18 C-17.16732932 21.29969893 -17.19710419 24.60132216 -17.31640625 28.078125 C-17.35830078 29.23828125 -17.40019531 30.3984375 -17.44335938 31.59375 C-17.50233398 33.40359375 -17.50233398 33.40359375 -17.5625 35.25 C-17.60568359 36.47203125 -17.64886719 37.6940625 -17.69335938 38.953125 C-17.79937283 41.96861881 -17.9001844 44.98429468 -18 48 C-22.29 48 -26.58 48 -31 48 C-31 32.49 -31 16.98 -31 1 C-26.71 1 -22.42 1 -18 1 C-17.67 2.65 -17.34 4.3 -17 6 C-16.61070312 5.566875 -16.22140625 5.13375 -15.8203125 4.6875 C-10.64760278 -0.46137234 -7.17805755 -0.58997733 0 0 Z " fill="#F8FBF9" transform="translate(476,132)"/>
<path d="M0 0 C4.29 0 8.58 0 13 0 C13.33 1.98 13.66 3.96 14 6 C14.804375 5.195625 15.60875 4.39125 16.4375 3.5625 C20 0 20 0 22.50390625 -0.09765625 C25.3359375 -0.06510417 28.16796875 -0.03255208 31 0 C31 3.96 31 7.92 31 12 C28.4321875 12.0928125 28.4321875 12.0928125 25.8125 12.1875 C21.62754818 12.55375061 20.28578823 12.77708518 16.875 15.4375 C14.06838636 19.27320531 13.838367 21.36992321 13.68359375 26.1015625 C13.64169922 27.31328125 13.59980469 28.525 13.55664062 29.7734375 C13.51732422 31.04445313 13.47800781 32.31546875 13.4375 33.625 C13.39431641 34.90375 13.35113281 36.1825 13.30664062 37.5 C13.2003019 40.66653082 13.0996233 43.83325079 13 47 C8.71 47 4.42 47 0 47 C0 31.49 0 15.98 0 0 Z " fill="#F7FAF8" transform="translate(429,62)"/>
<path d="M0 0 C3.87405134 2.03897439 6.33756543 4.97870556 8 9 C8.85348613 13.86037891 8.55698319 17.80907549 5.75 21.9375 C2.42309867 25.94090216 0.37180283 26.84511904 -4.875 27.4375 C-9.68866471 27.32973139 -11.69979521 25.3787811 -15 22 C-17.98098244 17.52852634 -17.86073109 13.23732986 -17 8 C-12.97677422 0.91616074 -7.93901856 -1.20085995 0 0 Z " fill="#0B673C" transform="translate(413,143)"/>
<path d="M0 0 C3.87068847 2.03720446 6.34730224 4.97669052 8 9 C8.72798272 13.65570345 8.42814156 17.14371687 6.3125 21.375 C2.71504412 25.45859857 0.51227778 26.80796473 -4.9375 27.5 C-9.70314808 27.31982427 -11.76251637 25.39164952 -15 22 C-17.69608353 17.54681375 -17.91676245 13.065501 -17 8 C-12.87347338 0.96212024 -7.99486774 -1.20930772 0 0 Z " fill="#0A663C" transform="translate(512,143)"/>
<path d="M0 0 C3.43177746 2.0085448 6.2103492 4.4206984 8 8 C8.4587217 14.88082543 7.59408065 19.01287683 2.9375 24.375 C-1.3540107 26.7490272 -5.20200302 26.7812528 -10 26 C-13.12414 24.24267125 -14.4882268 22.85295533 -16.3125 19.8125 C-17.68024245 14.21718998 -17.91168308 9.72905412 -15.1875 4.5625 C-10.77764187 -0.6033338 -6.47018518 -1.15504062 0 0 Z " fill="#086539" transform="translate(397,73)"/>
<path d="M0 0 C3.76367351 1.63637979 5.84255892 3.53960995 8 7 C8.73238075 11.81791647 8.60981191 16.45942255 6.8125 21 C3.42408996 24.73893522 0.58102693 26.18792354 -4.4375 26.5 C-7.85360037 26.39164289 -9.82190053 25.82352632 -12.5 23.6875 C-16.50511148 19.38200515 -16.38927459 15.38182801 -16.359375 9.73828125 C-15.79931339 5.47085526 -14.14910247 3.84918795 -11 1 C-7.55105608 -0.72447196 -3.77843255 -0.36671096 0 0 Z " fill="#066438" transform="translate(555,73)"/>
<path d="M0 0 C3.14546568 1.32794952 5.43281962 2.86563924 7 6 C7.50536707 11.14480246 7.86469264 15.53896761 5.1875 20.0625 C1.00550226 23.76655514 -1.38994592 24.39003387 -6.78125 24.25 C-10.98207413 23.7766677 -13.13769056 22.01098348 -15.8125 18.875 C-17.50260768 14.78316034 -17.87527444 11.35411946 -17 7 C-13.58609376 -0.5910842 -7.68857849 -1.47155286 0 0 Z " fill="#076539" transform="translate(496,73)"/>
<path d="M0 0 C4.97645138 2.75293055 5.08796499 4.26389498 7 10 C-0.92 10 -8.84 10 -17 10 C-15 4 -15 4 -12.4375 1.625 C-8.10362251 -0.42374209 -4.71316828 -0.85219648 0 0 Z " fill="#1B6C47" transform="translate(259,72)"/>
<path d="M0 0 C3.125 1.6875 3.125 1.6875 5 4 C5.33 5.65 5.66 7.3 6 9 C-1.59 9 -9.18 9 -17 9 C-13.37210911 -0.06972723 -9.46832635 -1.38868786 0 0 Z " fill="#076037" transform="translate(270,143)"/>
<path d="M0 0 C25.18904792 -1.23833716 25.18904792 -1.23833716 34 6 C33.01 6.33 32.02 6.66 31 7 C30.195625 6.505 29.39125 6.01 28.5625 5.5 C26.21458605 3.80466896 26.21458605 3.80466896 24.0625 4.125 C21.83937562 5.02141237 21.83937562 5.02141237 19.25 6.5625 C15.29780605 8.31058578 12.25379635 8.77110651 8 8 C3.87090668 5.85898865 1.88054967 4.18290487 0 0 Z " fill="#0F673D" transform="translate(243,92)"/>
<path d="M0 0 C0.66 0 1.32 0 2 0 C2 0.66 2 1.32 2 2 C2.64549805 1.98952637 3.29099609 1.97905273 3.95605469 1.96826172 C6.88733002 1.92662728 9.81854304 1.90065025 12.75 1.875 C13.76578125 1.85824219 14.7815625 1.84148437 15.828125 1.82421875 C16.8078125 1.81777344 17.7875 1.81132812 18.796875 1.8046875 C19.69760742 1.79421387 20.59833984 1.78374023 21.52636719 1.77294922 C24.13926856 2.01278324 25.75664666 2.67687936 28 4 C27.29875 4.268125 26.5975 4.53625 25.875 4.8125 C22.95428076 5.93949695 22.95428076 5.93949695 20.25 7.625 C16.02478591 9.41259058 12.52437671 9.72843274 8 9 C4.24680792 7.15752389 2.4973035 5.994607 0.625 2.25 C0.41875 1.5075 0.2125 0.765 0 0 Z " fill="#10663F" transform="translate(253,161)"/>
<path d="M0 0 C8.58 0 17.16 0 26 0 C25.67 0.66 25.34 1.32 25 2 C13.615 1.505 13.615 1.505 2 1 C2.33 8.26 2.66 15.52 3 23 C2.01 23.33 1.02 23.66 0 24 C0 16.08 0 8.16 0 0 Z " fill="#15603C" transform="translate(112,133)"/>
<path d="M0 0 C0 0.66 0 1.32 0 2 C-0.66 2 -1.32 2 -2 2 C-2 2.66 -2 3.32 -2 4 C0.31 4 2.62 4 5 4 C5 4.33 5 4.66 5 5 C4.33613281 5.04898438 3.67226563 5.09796875 2.98828125 5.1484375 C-3.7112236 5.71125812 -3.7112236 5.71125812 -10 8 C-9.67 7.01 -9.34 6.02 -9 5 C-8.34 5 -7.68 5 -7 5 C-7 4.34 -7 3.68 -7 3 C-7.66 2.67 -8.32 2.34 -9 2 C-2.25 0 -2.25 0 0 0 Z " fill="#256C4E" transform="translate(503,127)"/>
<path d="M0 0 C0.66 0.33 1.32 0.66 2 1 C2 1.66 2 2.32 2 3 C8.27 3 14.54 3 21 3 C21.33 2.34 21.66 1.68 22 1 C22 1.99 22 2.98 22 4 C14.41 4 6.82 4 -1 4 C-0.67 2.68 -0.34 1.36 0 0 Z " fill="#246449" transform="translate(254,148)"/>
<path d="M0 0 C0 3.99904969 -1.72586967 5.80200422 -4 9 C-4.8125 7.3125 -4.8125 7.3125 -5 5 C-2.5625 2.25 -2.5625 2.25 0 0 Z " fill="#1C6746" transform="translate(448,75)"/>
</svg>
